<svg xmlns="http://www.w3.org/2000/svg" width="1698" height="622.372" viewBox="0 0 1698 622.372"><defs><style>.a{opacity:0.6;}.b,.e,.f,.g,.h,.j{fill:none;}.b{stroke:#f4284a;}.b,.e,.g,.h{stroke-width:3px;}.c{fill:#0d6efd;}.d{fill:#f4284a;}.e,.f{stroke:#0d6efd;}.f{stroke-width:2.5px;}.g{stroke:#f92145;}.g,.h{stroke-linecap:round;stroke-linejoin:round;}.h{stroke:#f86a82;}.i{stroke:none;}</style></defs><g class="a" transform="translate(-61 -220.628)"><g class="b" transform="translate(347 813)"><circle class="i" cx="9.5" cy="9.5" r="9.5"/><circle class="j" cx="9.5" cy="9.5" r="8"/></g><circle class="c" cx="4.5" cy="4.5" r="4.5" transform="translate(61 717)"/><circle class="d" cx="4.5" cy="4.5" r="4.5" transform="translate(766 832)"/><circle class="c" cx="4.5" cy="4.5" r="4.5" transform="translate(1750 834)"/><g class="e" transform="matrix(0.899, 0.438, -0.438, 0.899, 143.396, 220.628)"><rect class="i" width="20" height="20" rx="4"/><rect class="j" x="1.5" y="1.5" width="17" height="17" rx="2.5"/></g><g class="f" transform="translate(900 706)"><rect class="i" width="20" height="20" rx="4"/><rect class="j" x="1.25" y="1.25" width="17.5" height="17.5" rx="2.75"/></g><g class="f" transform="translate(1541.711 310.163) rotate(-25)"><rect class="i" width="20" height="20" rx="4"/><rect class="j" x="1.25" y="1.25" width="17.5" height="17.5" rx="2.75"/></g><path class="g" d="M21.5,6.1a5.468,5.468,0,0,0-7.735,0L12.713,7.154,11.66,6.1a5.469,5.469,0,1,0-7.735,7.735l1.054,1.054,7.735,7.735,7.735-7.735L21.5,13.834a5.468,5.468,0,0,0,0-7.735Z" transform="translate(1677.061 560.943) rotate(-115)"/><path class="h" d="M21.5,6.1a5.468,5.468,0,0,0-7.735,0L12.713,7.154,11.66,6.1a5.469,5.469,0,1,0-7.735,7.735l1.054,1.054,7.735,7.735,7.735-7.735L21.5,13.834a5.468,5.468,0,0,0,0-7.735Z" transform="matrix(0.788, 0.616, -0.616, 0.788, 208.308, 489.177)"/></g></svg>