<svg xmlns="http://www.w3.org/2000/svg" width="24.074" height="24.074" viewBox="0 0 24.074 24.074"><defs><style>.a{fill:#161616;}</style></defs><path class="a" d="M12.037,0C8.767,0,8.359.015,7.075.072a8.876,8.876,0,0,0-2.922.56A5.9,5.9,0,0,0,2.02,2.02,5.873,5.873,0,0,0,.632,4.153a8.85,8.85,0,0,0-.56,2.922C.012,8.359,0,8.767,0,12.037S.015,15.715.072,17a8.881,8.881,0,0,0,.56,2.922A5.9,5.9,0,0,0,2.02,22.054a5.886,5.886,0,0,0,2.133,1.388A8.887,8.887,0,0,0,7.075,24c1.284.06,1.692.072,4.962.072S15.715,24.059,17,24a8.907,8.907,0,0,0,2.922-.56,6.152,6.152,0,0,0,3.521-3.521A8.881,8.881,0,0,0,24,17c.06-1.284.072-1.692.072-4.962S24.059,8.359,24,7.075a8.9,8.9,0,0,0-.56-2.922A5.908,5.908,0,0,0,22.054,2.02,5.865,5.865,0,0,0,19.921.632,8.855,8.855,0,0,0,17,.072C15.715.012,15.307,0,12.037,0Zm0,2.167c3.213,0,3.6.016,4.865.071a6.632,6.632,0,0,1,2.234.416,3.961,3.961,0,0,1,2.285,2.284,6.646,6.646,0,0,1,.414,2.234c.057,1.27.07,1.651.07,4.865s-.015,3.6-.074,4.865a6.774,6.774,0,0,1-.422,2.234,3.822,3.822,0,0,1-.9,1.386,3.755,3.755,0,0,1-1.384.9,6.7,6.7,0,0,1-2.242.414c-1.278.057-1.654.07-4.874.07s-3.6-.015-4.874-.074a6.825,6.825,0,0,1-2.243-.422,3.728,3.728,0,0,1-1.383-.9,3.655,3.655,0,0,1-.9-1.384,6.831,6.831,0,0,1-.421-2.242c-.045-1.264-.061-1.654-.061-4.859s.016-3.6.061-4.876A6.823,6.823,0,0,1,2.6,4.905a3.568,3.568,0,0,1,.9-1.385,3.56,3.56,0,0,1,1.383-.9A6.662,6.662,0,0,1,7.118,2.2c1.279-.045,1.655-.06,4.874-.06l.045.03Zm0,3.689a6.181,6.181,0,1,0,6.181,6.181A6.181,6.181,0,0,0,12.037,5.856Zm0,10.193a4.012,4.012,0,1,1,4.012-4.012A4.011,4.011,0,0,1,12.037,16.049Zm7.87-10.437a1.444,1.444,0,1,1-1.444-1.443A1.445,1.445,0,0,1,19.907,5.612Z"/></svg>