<svg xmlns="http://www.w3.org/2000/svg" width="24.182" height="19.652" viewBox="0 0 24.182 19.652"><defs><style>.a{fill:#161616;}</style></defs><path class="a" d="M26.752,7.144a9.919,9.919,0,0,1-2.849.781A4.976,4.976,0,0,0,26.084,5.18a9.932,9.932,0,0,1-3.15,1.2,4.966,4.966,0,0,0-8.454,4.525A14.085,14.085,0,0,1,4.254,5.725a4.967,4.967,0,0,0,1.535,6.624,4.941,4.941,0,0,1-2.247-.621c0,.021,0,.041,0,.062a4.964,4.964,0,0,0,3.98,4.865,4.969,4.969,0,0,1-2.24.085,4.966,4.966,0,0,0,4.634,3.445A9.954,9.954,0,0,1,3.754,22.31a10.062,10.062,0,0,1-1.183-.069,14.042,14.042,0,0,0,7.6,2.229A14.019,14.019,0,0,0,24.291,10.354q0-.323-.014-.642a10.078,10.078,0,0,0,2.476-2.568Z" transform="translate(-2.571 -4.817)"/></svg>