<svg xmlns="http://www.w3.org/2000/svg" width="72" height="82.667" viewBox="0 0 72 82.667"><defs><style>.a{fill:#fff;}</style></defs><g transform="translate(-5 -1)"><path class="a" d="M63.831,62.717l-13.679-5.6a3.984,3.984,0,0,1-2.485-3.7v-.957A24.68,24.68,0,0,0,56.679,41H57a6.674,6.674,0,0,0,6.667-6.667V22.871A21.867,21.867,0,0,0,41.8,1H37.235A23.51,23.51,0,0,0,17.307,11.939L13.84,17.387l1.395.927a6.947,6.947,0,0,1,3.1,5.792V34.333A6.674,6.674,0,0,0,25,41h.321a24.673,24.673,0,0,0,9.012,11.461v.957a3.982,3.982,0,0,1-2.485,3.7l-13.679,5.6A21.121,21.121,0,0,0,5,82.333v1.333H77V82.333A21.118,21.118,0,0,0,63.831,62.717ZM52.885,67.085l-5.42,4.065,3.592-10.777.759.311Zm-22.7-6.4.759-.311,3.592,10.777-5.42-4.065Zm4.488,10.879L37.817,81h-.265l-5.5-5.5ZM33.4,59.32c.2-.1.388-.209.571-.328L41,67.025l7.029-8.033c.183.119.375.225.571.328L41.373,81h-.747ZM47.329,71.563,49.951,75.5l-5.5,5.5h-.265Zm.337-45.229A5.316,5.316,0,0,0,43.075,29H38.925a5.316,5.316,0,0,0-4.592-2.667h-8V19.692A29.4,29.4,0,0,1,37.125,22.22,32.1,32.1,0,0,0,50.233,25h5.433v1.333ZM53,29v2.667a2.669,2.669,0,0,1-2.667,2.667H47.667a2.667,2.667,0,0,1,0-5.333ZM37,31.667a2.669,2.669,0,0,1-2.667,2.667H31.667A2.669,2.669,0,0,1,29,31.667V29h5.333A2.669,2.669,0,0,1,37,31.667Zm20.552,6.611a24.763,24.763,0,0,0,.781-6.143V30.58a3.977,3.977,0,0,1-.781,7.7ZM17.468,16.652l2.088-3.281a20.856,20.856,0,0,1,17.679-9.7H41.8A19.2,19.2,0,0,1,61,22.871v6.163A6.6,6.6,0,0,0,58.333,27.8V22.333h-8.1a29.427,29.427,0,0,1-12.025-2.552A32.2,32.2,0,0,0,25,17H23.667V27.8A6.62,6.62,0,0,0,21,29.033V24.105a9.611,9.611,0,0,0-3.532-7.453ZM21,34.333a4,4,0,0,1,2.667-3.755v1.555a24.774,24.774,0,0,0,.781,6.144A3.993,3.993,0,0,1,21,34.333Zm5.333-2.2v-.468A5.339,5.339,0,0,0,31.667,37h2.667a5.339,5.339,0,0,0,5.333-5.333h2.667A5.339,5.339,0,0,0,47.667,37h2.667a5.339,5.339,0,0,0,5.333-5.333v.468A22.037,22.037,0,0,1,41,52.924,22.037,22.037,0,0,1,26.333,32.135ZM40.579,55.6l.421.141.421-.14a24.92,24.92,0,0,0,3.625-1.536,6.626,6.626,0,0,0,1.072,3.063L41,62.975l-5.12-5.851a6.641,6.641,0,0,0,1.072-3.063A24.789,24.789,0,0,0,40.579,55.6Zm-21.4,9.589,8.1-3.315-1.063,6.376,4.972,3.729-2.575,3.86L33.781,81H21V73H18.333v8H7.713A18.451,18.451,0,0,1,19.18,65.187ZM63.667,81V73H61v8H48.219l5.164-5.164-2.575-3.86,4.972-3.729-1.063-6.376,8.1,3.315A18.453,18.453,0,0,1,74.285,81H63.667Z" transform="translate(0 0)"/><path class="a" d="M39.427,32H36.57a2.857,2.857,0,1,1-5.713,0H28a5.713,5.713,0,1,0,11.427,0Z" transform="translate(7.287 10.13)"/></g></svg>