<svg xmlns="http://www.w3.org/2000/svg" width="143.818" height="55.283" viewBox="0 0 143.818 55.283"><defs><style>.a{fill:#f92145;}</style></defs><g transform="translate(879.785 1077.717)"><g transform="translate(-879.785 -1077.717)"><g transform="translate(0 15.8)"><path class="a" d="M-858.8-1021.054a14.692,14.692,0,0,1,3.346-9.846,10.411,10.411,0,0,0-9.008-4.38,10.329,10.329,0,0,0-8.336,3.843v-3.444h-6.988v27.653h6.988V-1022.5c0-4.443,2.446-6.838,6.24-6.838,3.694,0,6.139,2.4,6.139,6.838v15.274h11.711C-854.727-1008.713-858.8-1013.8-858.8-1021.054Z" transform="translate(879.785 1035.28)"/></g><g transform="translate(28.074 9.361)"><path class="a" d="M-772.535-1038.812l.075-5.74h-6.265v-7.89a.133.133,0,0,0-.133-.133h-6.772a.133.133,0,0,0-.133.133v7.89h-4.906c4.129,2.2,6.7,6.481,6.7,12.042a16.343,16.343,0,0,1-.2,2.7h-20.216c.35,4.093,3.145,6.389,6.639,6.389a5.828,5.828,0,0,0,4.419-1.707,5.252,5.252,0,0,1,3.783-1.637h.754a2.567,2.567,0,0,1,2.566,2.489l0,.016c.816,4.514,4.078,6.181,8.635,6.181h5.045v-5.89h-3.245c-2.2,0-2.945-.8-2.945-2.645v-12.193Z" transform="translate(804.381 1052.575)"/></g><g transform="translate(43.375 35.239)"><path class="a" d="M-763.011-983.042l.026-.027-.3.012C-763.192-983.056-763.1-983.051-763.011-983.042Z" transform="translate(763.285 983.069)"/></g><g transform="translate(61.431 9.494)"><path class="a" d="M-714.787-1052.217h7.329v34.366h-7.329Z" transform="translate(714.787 1052.217)"/><g transform="translate(8.423 6.279)"><path class="a" d="M-678.539-1035.351a13,13,0,0,0-9.743,4.05,14.133,14.133,0,0,0-3.882,10.151,13.678,13.678,0,0,0,3.9,9.938,13.558,13.558,0,0,0,10.082,3.975,15.4,15.4,0,0,0,6.875-1.438,13.271,13.271,0,0,0,4.99-4.44l.244-.352-6.035-2.879-.182.18a8.186,8.186,0,0,1-5.939,2.456,7.1,7.1,0,0,1-4.724-1.554,6.581,6.581,0,0,1-2.188-3.775h20.577l.031-1.609a14.777,14.777,0,0,0-3.894-10.654A13.464,13.464,0,0,0-678.539-1035.351Zm-6.187,10.437a7.509,7.509,0,0,1,2.006-2.721,7.293,7.293,0,0,1,4.5-1.458,6.88,6.88,0,0,1,4.139,1.295,6.23,6.23,0,0,1,2.222,2.885Z" transform="translate(692.164 1035.351)"/><g transform="translate(29.013)"><path class="a" d="M-593.178-1016.806a7.826,7.826,0,0,1-6.437,2.856,7.388,7.388,0,0,1-5.382-2,6.943,6.943,0,0,1-2.036-5.166,7.2,7.2,0,0,1,2.119-5.345,7.66,7.66,0,0,1,5.582-2.083,8.518,8.518,0,0,1,3.313.594,8.776,8.776,0,0,1,2.859,2.14l.2.207,5.948-3.325-.223-.328a13.493,13.493,0,0,0-5.106-4.513,15.344,15.344,0,0,0-7.019-1.583,15.732,15.732,0,0,0-7.629,1.864,13.643,13.643,0,0,0-5.333,5.139,13.977,13.977,0,0,0-1.911,7.15,13.87,13.87,0,0,0,3.927,9.777c2.611,2.777,6.262,4.184,10.853,4.184,5.106,0,9.119-1.882,11.926-5.593l.229-.3-5.661-3.939Z" transform="translate(614.239 1035.351)"/></g></g></g><g transform="translate(63.9)"><path class="a" d="M-637.753-1060.383h-1.862v-10.368a3.1,3.1,0,0,0-3.294-2.846.938.938,0,0,1-.167-.015,183.625,183.625,0,0,0-27.917-2.232c-.72-.008-2.189-.011-2.2-.011l-1.685.006c-17.294.128-27.835,2.213-27.939,2.234a.954.954,0,0,1-.184.018,3.1,3.1,0,0,0-3.294,2.846v1.181h-1.862v-1.181a4.943,4.943,0,0,1,5.062-4.707c1.075-.206,11.565-2.13,28.2-2.253l1.7-.006c.006,0,1.492,0,2.219.011a187.224,187.224,0,0,1,28.151,2.248,4.944,4.944,0,0,1,5.07,4.707Z" transform="translate(708.157 1077.717)"/></g><g transform="translate(63.9 36.884)"><path class="a" d="M-672.619-960.251a7.578,7.578,0,0,1-5.646-2.47l-.386-.428a4.363,4.363,0,0,0-3.225-1.41l-21.079,1.065H-703a4.953,4.953,0,0,1-5.156-4.708v-1.823h1.862v1.823a3.1,3.1,0,0,0,3.272,2.846l21.078-1.066h.047a6.229,6.229,0,0,1,4.629,2.025l.386.428a5.73,5.73,0,0,0,4.418,1.853,5.691,5.691,0,0,0,4.29-2.056,6.177,6.177,0,0,1,4.822-2.25h.048l20.418,1.066a3.1,3.1,0,0,0,3.271-2.846v-10.449h1.862V-968.2a4.953,4.953,0,0,1-5.156,4.708h-.048l-20.418-1.065a4.381,4.381,0,0,0-3.356,1.564,7.55,7.55,0,0,1-5.687,2.741Z" transform="translate(708.157 978.649)"/></g><g transform="translate(84.859 52.375)"><path class="a" d="M-651.862-937.043" transform="translate(651.862 937.043)"/></g><g transform="translate(24.758 14.587)"><path class="a" d="M-809.921-1025.7h13.127a5.949,5.949,0,0,0-5.11-5.8l2.109-3.543a1.771,1.771,0,0,0,1.689-.546,1.771,1.771,0,0,0-.131-2.5,1.771,1.771,0,0,0-2.5.131,1.771,1.771,0,0,0,.131,2.5l-2.206,3.84c-.188-.013-.378-.023-.571-.023a6.975,6.975,0,0,0-2.266.367l-3.5-3.425a2.209,2.209,0,0,0-.174-2.407,2.21,2.21,0,0,0-3.1-.422,2.21,2.21,0,0,0-.422,3.1,2.21,2.21,0,0,0,3.1.422l3.194,3.127A6.674,6.674,0,0,0-809.921-1025.7Z" transform="translate(813.287 1038.538)"/></g></g><g transform="translate(-784.843 -1029.876)"><path class="a" d="M-620.183-945.934q-.178,0-.356-.012A6.3,6.3,0,0,1-624.6-948a.745.745,0,0,1,.089-1.049.744.744,0,0,1,1.048.087,4.842,4.842,0,0,0,3.043,1.527,5.161,5.161,0,0,0,3.756-1.6.745.745,0,0,1,1.052.051.744.744,0,0,1-.051,1.051A6.729,6.729,0,0,1-620.183-945.934Z" transform="translate(624.78 949.22)"/></g><g transform="translate(-782.588 -1031.64)"><path class="a" d="M-616.337-951.989c-.061,0-.122,0-.184-.006a3.208,3.208,0,0,1-2.07-1.044.558.558,0,0,1,.067-.787.558.558,0,0,1,.785.064,2.086,2.086,0,0,0,1.3.653,2.242,2.242,0,0,0,1.626-.7.558.558,0,0,1,.789.038.558.558,0,0,1-.038.789A3.386,3.386,0,0,1-616.337-951.989Z" transform="translate(618.723 953.958)"/></g><g transform="translate(-761.779 -1061.781)"><g transform="translate(10.096 6.87)"><path class="a" d="M-535.718-1014.536l5.879-1.928v4.852l-5.879,1.08Z" transform="translate(535.718 1016.464)"/></g><g transform="translate(16.232 3.961)"><path class="a" d="M-519.236-1023.5l2.111-.778v1.958l-2.111.436Z" transform="translate(519.236 1024.277)"/></g><g transform="translate(18.934 0.699)"><path class="a" d="M-511.98-1032.259l2.111-.778v1.958l-2.111.436Z" transform="translate(511.98 1033.037)"/></g><g transform="translate(22.131 1.695)"><path class="a" d="M-503.393-1029.8l1.941-.561v1.411l-1.941.314Z" transform="translate(503.393 1030.363)"/></g><g transform="translate(17.878 6.355)"><path class="a" d="M-514.814-1017.069l2.111-.778v1.958l-2.111.436Z" transform="translate(514.814 1017.847)"/></g><g transform="translate(16.666 9.414)"><path class="a" d="M-518.071-1009.176l1.233-.455v1.144l-1.233.255Z" transform="translate(518.071 1009.631)"/></g><g transform="translate(19.752 4.122)"><path class="a" d="M-509.781-1023.388l1.233-.455v1.144l-1.233.255Z" transform="translate(509.781 1023.843)"/></g><g transform="translate(22.485)"><path class="a" d="M-502.442-1034.461l1.233-.455v1.144l-1.233.255Z" transform="translate(502.442 1034.915)"/></g><g transform="translate(24.579 0.165)"><path class="a" d="M-496.816-1034.017l1.233-.455v1.144l-1.233.255Z" transform="translate(496.816 1034.471)"/></g><g transform="translate(14.22 13.496)"><path class="a" d="M-524.639-997.887l2.111-.778v1.958l-2.111.436Z" transform="translate(524.639 998.665)"/></g><g transform="translate(10.232 13.496)"><path class="a" d="M-535.351-997.887l2.111-.778v1.958l-2.111.436Z" transform="translate(535.351 998.665)"/></g><g transform="translate(7.339 14.693)"><path class="a" d="M-543.123-994.672l2.111-.778v1.958l-2.111.436Z" transform="translate(543.123 995.45)"/></g><g transform="translate(3.618 13.496)"><path class="a" d="M-553.116-997.887l2.111-.778v1.958l-2.111.436Z" transform="translate(553.116 998.665)"/></g><g transform="translate(0 13.496)"><path class="a" d="M-562.834-997.73l2.537-.935v2.353l-2.537.524Z" transform="translate(562.834 998.665)"/></g><g transform="translate(10.925 16.886)"><path class="a" d="M-533.492-988.782l2.111-.778v1.958l-2.111.436Z" transform="translate(533.492 989.561)"/></g><g transform="translate(12.476 3.961)"><path class="a" d="M-529.325-1023.5l2.111-.778v1.958l-2.111.436Z" transform="translate(529.325 1024.277)"/></g><g transform="translate(9.106 6.024)"><path class="a" d="M-538.376-1018.029l1.78-.707v1.778l-1.78.4Z" transform="translate(538.376 1018.735)"/></g><g transform="translate(5.559 9.524)"><path class="a" d="M-547.9-1008.628l1.78-.706v1.778l-1.78.4Z" transform="translate(547.903 1009.334)"/></g><g transform="translate(7.038 11.344)"><path class="a" d="M-541.862-1004.446l-.09,1.786-1.978.367.143-1.583Z" transform="translate(543.93 1004.446)"/></g></g></g></svg>