<svg xmlns="http://www.w3.org/2000/svg" xmlns:xlink="http://www.w3.org/1999/xlink" width="151.552" height="49.574" viewBox="0 0 151.552 49.574"><defs><style>.a{fill:none;}.b{fill:#1a1818;}.c{clip-path:url(#a);}.d{fill:url(#b);}.e{fill:url(#c);}.f{fill:url(#d);}.g{fill:url(#e);}.h{fill:#f9f9f9;}.i{fill:#f7f8f8;}</style><clipPath id="a"><path class="a" d="M156.482,341.8l-6.834-3.946-13.181-7.611c-.732-.423-1.461-.167-1.461.716v31.008c0,.662.521.947,1.157.58l13.485-7.786,6.833-3.945,6.569-3.792c.771-.445.7-1.056.047-1.406S156.482,341.8,156.482,341.8Z" transform="translate(-135.006 -330.047)"/></clipPath><linearGradient id="b" x1="0.5" x2="0.5" y2="1" gradientUnits="objectBoundingBox"><stop offset="0" stop-color="#006aa2"/><stop offset="0.345" stop-color="#2f8da6"/><stop offset="0.786" stop-color="#66b6ac"/><stop offset="1" stop-color="#7cc6af"/></linearGradient><linearGradient id="c" y1="0.5" x2="1" y2="0.5" gradientUnits="objectBoundingBox"><stop offset="0" stop-color="#4ab59d"/><stop offset="1" stop-color="#dfe385"/></linearGradient><linearGradient id="d" x1="0.5" x2="0.5" y2="1" gradientUnits="objectBoundingBox"><stop offset="0" stop-color="#e4282d"/><stop offset="0.316" stop-color="#ba2d4e"/><stop offset="0.777" stop-color="#83357b"/><stop offset="1" stop-color="#6e388d"/></linearGradient><linearGradient id="e" x1="0.5" x2="0.5" y2="1" gradientUnits="objectBoundingBox"><stop offset="0" stop-color="#f07165"/><stop offset="0.659" stop-color="#faa460"/><stop offset="1" stop-color="#ffba5e"/></linearGradient></defs><g transform="translate(0)"><path class="b" d="M248.193,338.948a6.7,6.7,0,0,1-6.7,6.7H103.341a6.7,6.7,0,0,1-6.7-6.7V302.774a6.7,6.7,0,0,1,6.7-6.7H241.495a6.7,6.7,0,0,1,6.7,6.7Z" transform="translate(-96.641 -296.074)"/><g transform="translate(11.368 10.066)"><g class="c" transform="translate(0 0)"><path class="d" d="M135.006,328.285v33.572l16.929-16.785Z" transform="translate(-135.006 -328.807)"/><path class="e" d="M156.482,340.272l-6.834-3.945-14.642-8.454V328l16.929,16.786Z" transform="translate(-135.006 -328.517)"/><path class="f" d="M135.006,401.723v.122l14.642-8.454,6.833-3.945-4.547-4.508Z" transform="translate(-135.006 -368.674)"/><path class="g" d="M196.687,369.721l-4.547,4.509,4.547,4.508,7.81-4.508Z" transform="translate(-175.211 -357.965)"/></g></g><g transform="translate(113.402 18.853)"><path class="h" d="M483.911,383.052a4.221,4.221,0,0,1-1.741-.352,3.281,3.281,0,0,1-1.323-1.082h-.107a13.124,13.124,0,0,1,.107,1.621v4.017h-1.478V373.11h1.2l.2,1.336h.071a3.437,3.437,0,0,1,1.328-1.158,4.032,4.032,0,0,1,1.737-.356,3.608,3.608,0,0,1,3,1.327,7.069,7.069,0,0,1-.017,7.461A3.617,3.617,0,0,1,483.911,383.052Zm-.214-8.864a2.62,2.62,0,0,0-2.164.828,4.266,4.266,0,0,0-.687,2.637v.329a4.884,4.884,0,0,0,.687,2.944,2.609,2.609,0,0,0,2.2.886,2.289,2.289,0,0,0,1.983-1.024,4.86,4.86,0,0,0,.717-2.824,4.678,4.678,0,0,0-.717-2.8A2.36,2.36,0,0,0,483.7,374.188Z" transform="translate(-479.368 -369.012)"/><path class="h" d="M516.423,373.564h-1.479V359.7h1.479Z" transform="translate(-504.403 -359.703)"/><path class="h" d="M532.632,382.915l-.294-1.39h-.071a4.1,4.1,0,0,1-1.457,1.243,4.425,4.425,0,0,1-1.813.325,3.261,3.261,0,0,1-2.276-.748,2.728,2.728,0,0,1-.824-2.129q0-2.957,4.73-3.1l1.657-.054v-.605a2.473,2.473,0,0,0-.495-1.7,2.032,2.032,0,0,0-1.581-.548,6.438,6.438,0,0,0-2.761.748l-.455-1.132a6.947,6.947,0,0,1,1.582-.615,6.846,6.846,0,0,1,1.724-.223,3.719,3.719,0,0,1,2.588.775,3.237,3.237,0,0,1,.842,2.486v6.663Zm-3.34-1.042a3,3,0,0,0,2.169-.757,2.8,2.8,0,0,0,.788-2.121v-.882l-1.479.062a5.378,5.378,0,0,0-2.543.549,1.652,1.652,0,0,0-.779,1.51,1.521,1.521,0,0,0,.486,1.22A2.013,2.013,0,0,0,529.291,381.874Z" transform="translate(-512.11 -369.054)"/><path class="h" d="M555.222,373.533h1.585l2.138,5.568a21.27,21.27,0,0,1,.874,2.753h.071q.116-.455.485-1.555t2.418-6.765h1.586l-4.2,11.117a5.545,5.545,0,0,1-1.457,2.339,3.1,3.1,0,0,1-2.044.69,5.984,5.984,0,0,1-1.337-.151v-1.185a5.17,5.17,0,0,0,1.1.107,2.259,2.259,0,0,0,2.174-1.711l.543-1.389Z" transform="translate(-532.747 -369.435)"/></g><g transform="translate(45.99 17.762)"><path class="h" d="M384.16,374.848a3.326,3.326,0,0,1-.266,5.656,1.437,1.437,0,0,0-.572,1,1.12,1.12,0,0,0,.532.878l.735.571c.9.756,1.714,1.451,1.714,2.86,0,1.919-1.858,3.859-5.37,3.859-2.962,0-4.39-1.409-4.39-2.921a2.938,2.938,0,0,1,1.572-2.491,8.8,8.8,0,0,1,3.9-.94,2.137,2.137,0,0,1-.613-1.387,1.843,1.843,0,0,1,.2-.8c-.225.021-.45.041-.654.041a3.228,3.228,0,0,1-3.389-3.205,3.674,3.674,0,0,1,1.306-2.737,5.569,5.569,0,0,1,3.657-1.124h4.206l-1.307.735Zm-1.45,9.067a3.163,3.163,0,0,0-.469-.021,8.172,8.172,0,0,0-2.145.328,2.294,2.294,0,0,0-1.756,2.1c0,1.449,1.41,2.492,3.595,2.492,1.959,0,3-.941,3-2.206C384.936,385.568,384.262,385.019,382.71,383.916Zm.593-3.88a2.066,2.066,0,0,0,.509-1.491c0-1.47-.878-3.757-2.572-3.757a1.907,1.907,0,0,0-1.43.674,2.359,2.359,0,0,0-.449,1.511c0,1.368.8,3.635,2.553,3.635A2.091,2.091,0,0,0,383.3,380.035Z" transform="translate(-339.598 -368.752)"/><path class="h" d="M347.047,382.9a4.811,4.811,0,0,1-4.974-4.812,5.052,5.052,0,0,1,5.281-4.953,4.766,4.766,0,0,1,4.872,4.811A4.982,4.982,0,0,1,347.047,382.9Zm2.548-1.651a3.688,3.688,0,0,0,.612-2.264c0-1.795-.856-5.219-3.385-5.219a2.84,2.84,0,0,0-1.834.694,3.085,3.085,0,0,0-.939,2.488c0,2.017,1,5.339,3.467,5.339A2.6,2.6,0,0,0,349.6,381.249Z" transform="translate(-315.342 -368.064)"/><path class="h" d="M309.751,382.9a4.812,4.812,0,0,1-4.975-4.812,5.052,5.052,0,0,1,5.281-4.953,4.766,4.766,0,0,1,4.872,4.811A4.982,4.982,0,0,1,309.751,382.9Zm2.549-1.651a3.693,3.693,0,0,0,.612-2.264c0-1.795-.857-5.219-3.385-5.219a2.841,2.841,0,0,0-1.835.694,3.085,3.085,0,0,0-.938,2.488c0,2.017,1,5.339,3.466,5.339A2.606,2.606,0,0,0,312.3,381.249Z" transform="translate(-289.096 -368.064)"/><path class="h" d="M265.979,371.621l-2.931.676a21.722,21.722,0,0,1-3.382.348c-5.658,0-7.81-4.161-7.81-7.42,0-3.976,3.054-7.665,8.281-7.665a11.8,11.8,0,0,1,3.135.43,7.992,7.992,0,0,1,2.706,1.271l-1.7,1.619-.717.163.512-.82a5.859,5.859,0,0,0-4.386-1.926c-3.239,0-5.679,2.461-5.679,6.047a7.249,7.249,0,0,0,7.256,7.481,6.1,6.1,0,0,0,2.6-.513v-3.3l-3.095.164,1.639-.882h4.346l-.532.512a.479.479,0,0,0-.206.327c-.021.185-.041.78-.041.985Z" transform="translate(-251.856 -357.103)"/><path class="h" d="M413.775,369.946c-.677-.062-.818-.184-.818-.984v-11.6c0-.044.007-.089.011-.132.083-.717.287-.84.924-1.209h-2.933l-1.538.738h1.567v12.656c0,.409-.081.471-.553,1.086h3.628l.758-.45C414.473,370.007,414.124,369.987,413.775,369.946Z" transform="translate(-362.734 -356.019)"/><path class="h" d="M434.62,382.194c-.223.122-.447.266-.67.367a4.741,4.741,0,0,1-1.977.387,4.35,4.35,0,0,1-2.708-.794,5.268,5.268,0,0,1-2.075-4.3,4.614,4.614,0,0,1,4.662-4.7,3.957,3.957,0,0,1,2.1.57,3.37,3.37,0,0,1,1.423,2.014l-4.783,1.935-1.568.122c.508,2.585,2.259,4.09,4.193,4.09a5.26,5.26,0,0,0,2.483-.711Zm-1.913-6.067c.386-.142.59-.265.59-.549a2.02,2.02,0,0,0-2.016-1.75,2.507,2.507,0,0,0-2.341,2.829c0,.346.041.712.062,1.08Z" transform="translate(-375.238 -368.078)"/><g transform="translate(60.739 5.078)"><path class="h" d="M457.453,373.3v1.343h-.163V373.3h-.444v-.139H457.9v.139Z" transform="translate(-456.846 -373.156)"/><path class="h" d="M462.417,374.638v-1.356h-.007L462,374.638h-.127l-.418-1.356h-.005v1.356H461.3v-1.482h.254l.378,1.2h.005l.372-1.2h.257v1.482Z" transform="translate(-459.979 -373.156)"/></g></g><g transform="translate(46.025 9.987)"><path class="i" d="M256.01,334.247h-1.018a6.758,6.758,0,0,0-.29-1.19h-1.471a6.154,6.154,0,0,0-.3,1.19h-.958q0-.124.743-2.037a16.019,16.019,0,0,0,.743-2.107h1.2a17.581,17.581,0,0,0,.673,2.076A18.177,18.177,0,0,1,256.01,334.247Zm-1.471-1.8a18.011,18.011,0,0,1-.544-1.776h-.051q0,.124-.563,1.776Z" transform="translate(-251.974 -330.007)"/><path class="i" d="M271.335,334.247h-.786a7.746,7.746,0,0,0-.875-1.378,7.59,7.59,0,0,1-1.044-1.8h-.051a11.214,11.214,0,0,1,.08,1.26q0,.786.044,1.916h-.783q.048-.987.048-2.168,0-1.162-.048-1.976h.945a5.987,5.987,0,0,0,.786,1.346,7.923,7.923,0,0,1,.961,1.7h.048a12.086,12.086,0,0,1-.076-1.273q0-.862-.045-1.77h.8q-.045.789-.045,1.976T271.335,334.247Z" transform="translate(-263.195 -330.007)"/><path class="i" d="M286.7,331.986a2.347,2.347,0,0,1-.58,1.579,2.023,2.023,0,0,1-1.623.675q-.471,0-1.3-.038.041-.961.041-2.168,0-1.158-.041-1.976h.557q.137,0,.407-.01c.18-.006.3-.01.353-.01a2.146,2.146,0,0,1,1.666.573A1.981,1.981,0,0,1,286.7,331.986Zm-.869.137a1.533,1.533,0,0,0-.356-1.03,1.351,1.351,0,0,0-1.089-.418,3.365,3.365,0,0,0-.376.029q.032.637.032,1.33,0,.761.032,1.509a2.107,2.107,0,0,0,.414.041,1.2,1.2,0,0,0,1.014-.425A1.64,1.64,0,0,0,285.832,332.123Z" transform="translate(-273.948 -329.962)"/><path class="i" d="M301.406,334.2h-.942a6.253,6.253,0,0,0-.566-1.391.742.742,0,0,0-.636-.264q-.185,0-.353,0,0,.818.029,1.652h-.885q.041-.961.041-2.168,0-1.158-.041-1.976h.551q.1,0,.4-.01t.562-.01q1.461,0,1.461,1a1.121,1.121,0,0,1-.834,1.1v.048a.994.994,0,0,1,.564.5A11.072,11.072,0,0,1,301.406,334.2Zm-1.193-2.928q0-.633-.815-.634a2.776,2.776,0,0,0-.529.045q.035.493.035,1.286.175.006.3.006Q300.212,331.976,300.212,331.273Z" transform="translate(-284.398 -329.962)"/><path class="i" d="M315.149,331.871a2.286,2.286,0,0,1-.6,1.62,1.942,1.942,0,0,1-1.48.643,1.87,1.87,0,0,1-1.407-.591,2.078,2.078,0,0,1-.567-1.5,2.284,2.284,0,0,1,.6-1.62,1.941,1.941,0,0,1,1.48-.643,1.872,1.872,0,0,1,1.407.589A2.077,2.077,0,0,1,315.149,331.871Zm-.878.092a1.643,1.643,0,0,0-.341-1.079,1.048,1.048,0,0,0-.84-.414.97.97,0,0,0-.789.417,1.664,1.664,0,0,0-.325,1.053,1.639,1.639,0,0,0,.342,1.077,1.048,1.048,0,0,0,.839.415.969.969,0,0,0,.789-.419A1.665,1.665,0,0,0,314.27,331.963Z" transform="translate(-293.579 -329.78)"/><path class="i" d="M328.706,334.247h-.9q.041-.987.042-2.168,0-1.162-.042-1.976h.9q-.041.8-.041,1.976Q328.665,333.28,328.706,334.247Z" transform="translate(-305.336 -330.007)"/><path class="i" d="M338.1,331.986a2.347,2.347,0,0,1-.579,1.579,2.023,2.023,0,0,1-1.623.675q-.471,0-1.3-.038.041-.961.042-2.168,0-1.158-.042-1.976h.557q.137,0,.407-.01t.353-.01a2.146,2.146,0,0,1,1.666.573A1.982,1.982,0,0,1,338.1,331.986Zm-.869.137a1.535,1.535,0,0,0-.356-1.03,1.352,1.352,0,0,0-1.089-.418,3.359,3.359,0,0,0-.376.029q.032.637.032,1.33,0,.761.032,1.509a2.107,2.107,0,0,0,.414.041,1.2,1.2,0,0,0,1.014-.425A1.64,1.64,0,0,0,337.231,332.123Z" transform="translate(-310.117 -329.962)"/><path class="i" d="M357.486,334.247h-1.018a6.714,6.714,0,0,0-.29-1.19h-1.471a6.139,6.139,0,0,0-.3,1.19h-.958q0-.124.743-2.037a15.992,15.992,0,0,0,.743-2.107h1.2a17.564,17.564,0,0,0,.674,2.076A18.269,18.269,0,0,1,357.486,334.247Zm-1.471-1.8a18.071,18.071,0,0,1-.545-1.776h-.051a18.633,18.633,0,0,1-.563,1.776Z" transform="translate(-323.383 -330.007)"/><path class="i" d="M372.42,331.143a1.241,1.241,0,0,1-.565,1.124,2.513,2.513,0,0,1-1.386.363q-.15,0-.213-.006,0,.6.035,1.579H369.4q.041-.919.042-2.168,0-1.146-.042-1.976h.554q.117,0,.452-.01t.579-.01a1.821,1.821,0,0,1,1.022.274A.926.926,0,0,1,372.42,331.143Zm-.821.175q0-.681-.9-.681a2.546,2.546,0,0,0-.477.048q.035.6.035,1.362c.053,0,.115.006.185.006Q371.6,332.053,371.6,331.317Z" transform="translate(-334.604 -329.962)"/><path class="i" d="M385.3,331.143a1.241,1.241,0,0,1-.565,1.124,2.516,2.516,0,0,1-1.386.363c-.1,0-.171,0-.213-.006q0,.6.035,1.579h-.895q.041-.919.042-2.168,0-1.146-.042-1.976h.554q.118,0,.452-.01t.579-.01a1.821,1.821,0,0,1,1.022.274A.926.926,0,0,1,385.3,331.143Zm-.821.175q0-.681-.9-.681a2.545,2.545,0,0,0-.477.048q.035.6.035,1.362.08.007.185.006Q384.483,332.053,384.483,331.317Z" transform="translate(-343.67 -329.962)"/><path class="i" d="M403.927,331.871a2.285,2.285,0,0,1-.6,1.62,1.941,1.941,0,0,1-1.48.643,1.87,1.87,0,0,1-1.407-.591,2.08,2.08,0,0,1-.567-1.5,2.286,2.286,0,0,1,.6-1.62,1.942,1.942,0,0,1,1.48-.643,1.873,1.873,0,0,1,1.407.589A2.078,2.078,0,0,1,403.927,331.871Zm-.879.092a1.641,1.641,0,0,0-.341-1.079,1.048,1.048,0,0,0-.84-.414.971.971,0,0,0-.79.417,1.664,1.664,0,0,0-.324,1.053,1.639,1.639,0,0,0,.342,1.077,1.048,1.048,0,0,0,.839.415.969.969,0,0,0,.789-.419A1.664,1.664,0,0,0,403.048,331.963Z" transform="translate(-356.052 -329.78)"/><path class="i" d="M420,334.247h-.786a7.75,7.75,0,0,0-.875-1.378,7.6,7.6,0,0,1-1.044-1.8h-.051a11.274,11.274,0,0,1,.079,1.26q0,.786.045,1.916h-.783q.047-.987.048-2.168,0-1.162-.048-1.976h.945a6,6,0,0,0,.786,1.346,7.926,7.926,0,0,1,.961,1.7h.048a12.027,12.027,0,0,1-.076-1.273q0-.862-.044-1.77h.8q-.044.789-.044,1.976T420,334.247Z" transform="translate(-367.81 -330.007)"/></g></g></svg>